<svg id="Layer_1" data-name="Layer 1" xmlns="http://www.w3.org/2000/svg" viewBox="0 0 59.84 76.02"><defs><style>.cls-1{fill:#fff;}.cls-2{fill:#f37930;}</style></defs><title>Untitled-2</title><path class="cls-1" d="M17.78,45.21V37.16h0.54q1.17,3.91,3.15,5.49a7.7,7.7,0,0,0,5,1.58Q31,44.22,31,41.3a2,2,0,0,0-1.12-1.89,15.17,15.17,0,0,0-4.5-1.53,17.6,17.6,0,0,1-5.13-2.16,5.68,5.68,0,0,1-2.48-5.13A7.44,7.44,0,0,1,19.94,25a7.93,7.93,0,0,1,5.76-2.09,11.21,11.21,0,0,1,4.55,1,3.72,3.72,0,0,0,1.3.36A1,1,0,0,0,32.31,24a5.19,5.19,0,0,0,.77-1.17h0.49v6.88H33q-2.3-5.85-7.11-5.85a5.42,5.42,0,0,0-3.15.74,2.22,2.22,0,0,0-1,1.87,1.62,1.62,0,0,0,.31,1.06q0.31,0.38.5,0.56a2.29,2.29,0,0,0,.58.38l0.68,0.31q0.27,0.11.83,0.29a6.57,6.57,0,0,0,.83.23,34.35,34.35,0,0,1,4.41,1.33A15,15,0,0,1,32.45,32q2.47,1.71,2.48,5.51a7.22,7.22,0,0,1-2.25,5.76,9.07,9.07,0,0,1-6.17,2,11.93,11.93,0,0,1-5.4-1.31,1.74,1.74,0,0,0-.85-0.36q-1,0-1.94,1.67H17.78Z" transform="translate(-0.06 -0.23)"/><path class="cls-1" d="M47.26,53.76a53.69,53.69,0,0,1-4.91,22.49,48.44,48.44,0,0,0,8.41-27.36A48.67,48.67,0,0,0,2.09.23c-0.68,0-1.35,0-2,.05A53.91,53.91,0,0,1,47.26,53.76Z" transform="translate(-0.06 -0.23)"/><path class="cls-2" d="M48.94,23.29a10.89,10.89,0,0,0-4.8,1.12,48.35,48.35,0,0,1,6.45,20.66A11,11,0,0,0,48.94,23.29Z" transform="translate(-0.06 -0.23)"/></svg>