<svg id="Layer_1" data-name="Layer 1" xmlns="http://www.w3.org/2000/svg" viewBox="0 0 153.3 76.02"><defs><style>.cls-1{fill:#fff;}.cls-2{fill:#f37930;}.cls-3{fill:#aaa;}</style></defs><title>Untitled-1</title><path class="cls-1" d="M87.39,44.54H77.13l-0.5-3.29A5.89,5.89,0,0,1,74.5,44a7.49,7.49,0,0,1-4.21,1q-7,0-7-7.51V23.93H60.8V23.12H71.69V38.55a10.44,10.44,0,0,0,.38,3.56A1.5,1.5,0,0,0,73.6,43a2.51,2.51,0,0,0,2-1.39,7.1,7.1,0,0,0,.9-3.87V23.93H74.48V23.12H84.92V43.73h2.48v0.81Z" transform="translate(-0.39)"/><path class="cls-1" d="M103.32,24.38q-1.67,0-2.92,2.16a10,10,0,0,0-1.26,5.13V43.73h3.2v0.81h-14V43.73h2.47V23.93H88.29V23.12H99.14v4.32a6.1,6.1,0,0,1,2.25-3.53,6.18,6.18,0,0,1,3.78-1.24,5,5,0,0,1,3.44,1.19,4.3,4.3,0,0,1,1.33,3.38,5.05,5.05,0,0,1-1,3.35,3.76,3.76,0,0,1-3,1.17,3.46,3.46,0,0,1-3-1.35,4.16,4.16,0,0,1-.25-3.74h1.62Q105.39,24.38,103.32,24.38Z" transform="translate(-0.39)"/><path class="cls-1" d="M122.94,23.48a2.94,2.94,0,0,0-2.83,2.16,21.27,21.27,0,0,0-.86,7.15v2.34q0,4.46,1,6.39a3.72,3.72,0,0,0,3.65,1.93,5.33,5.33,0,0,0,4.23-1.8,8.63,8.63,0,0,0,2-4.09L131,37.65a9.08,9.08,0,0,1-3.15,5.58A10.51,10.51,0,0,1,121.37,45q-5.22,0-8-2.81t-2.79-8.24q0-5.42,3.17-8.35t8.84-2.93a10.24,10.24,0,0,1,6.12,1.55,4.67,4.67,0,0,1,2.12,3.89,4.88,4.88,0,0,1-1,3.42A3.63,3.63,0,0,1,127,32.61a4.18,4.18,0,0,1-2.86-.95,3.51,3.51,0,0,1-1.08-2.79,6,6,0,0,1,.23-1.62h1.48a5,5,0,0,0,.32-1.62A1.91,1.91,0,0,0,122.94,23.48Z" transform="translate(-0.39)"/><path class="cls-1" d="M135.21,42q-2.9-3-2.9-8.32t3.26-8.17a12.2,12.2,0,0,1,8.3-2.83q10.21,0,9.81,10.26H141v1.75a15.38,15.38,0,0,0,1.13,6.66A4,4,0,0,0,146,43.59q5.22,0,6.84-5.58l0.81,0.14a9.31,9.31,0,0,1-3.08,5q-2.23,1.8-6.68,1.8Q138.11,45,135.21,42ZM141,32h4.63V29.82a19,19,0,0,0-.43-5,1.69,1.69,0,0,0-1.71-1.33,2,2,0,0,0-1.89,1.42,13.7,13.7,0,0,0-.61,4.88V32Z" transform="translate(-0.39)"/><path class="cls-1" d="M18.1,45V36.93h0.54q1.17,3.91,3.15,5.49a7.7,7.7,0,0,0,5,1.58q4.59,0,4.59-2.92a2,2,0,0,0-1.12-1.89,15.17,15.17,0,0,0-4.5-1.53,17.6,17.6,0,0,1-5.13-2.16,5.68,5.68,0,0,1-2.48-5.13,7.44,7.44,0,0,1,2.16-5.6A7.93,7.93,0,0,1,26,22.67a11.21,11.21,0,0,1,4.55,1,3.72,3.72,0,0,0,1.3.36,1,1,0,0,0,.77-0.31,5.19,5.19,0,0,0,.77-1.17H33.9v6.88H33.36q-2.3-5.85-7.11-5.85a5.42,5.42,0,0,0-3.15.74,2.22,2.22,0,0,0-1,1.87,1.62,1.62,0,0,0,.31,1.06q0.31,0.38.5,0.56a2.29,2.29,0,0,0,.58.38l0.68,0.31q0.27,0.11.83,0.29a6.57,6.57,0,0,0,.83.23,34.35,34.35,0,0,1,4.41,1.33,15,15,0,0,1,2.56,1.37q2.47,1.71,2.48,5.51A7.22,7.22,0,0,1,33,43a9.07,9.07,0,0,1-6.17,2,11.93,11.93,0,0,1-5.4-1.31,1.74,1.74,0,0,0-.85-0.36q-1,0-1.94,1.67H18.1Z" transform="translate(-0.39)"/><path class="cls-1" d="M47.58,53.54A53.69,53.69,0,0,1,42.67,76a48.44,48.44,0,0,0,8.41-27.36A48.67,48.67,0,0,0,2.42,0C1.74,0,1.06,0,.39.05A53.91,53.91,0,0,1,47.58,53.54Z" transform="translate(-0.39)"/><path class="cls-2" d="M49.27,23.06a10.89,10.89,0,0,0-4.8,1.12,48.35,48.35,0,0,1,6.45,20.66A11,11,0,0,0,49.27,23.06Z" transform="translate(-0.39)"/><path class="cls-3" d="M100.65,56.33a1.71,1.71,0,0,1,.71.94A5.45,5.45,0,0,1,101.6,59v4.81h-1.5V59.08a3.93,3.93,0,0,0-.11-1,0.9,0.9,0,0,0-.42-0.56,1.82,1.82,0,0,0-.9-0.18,2.86,2.86,0,0,0-.94.19,4,4,0,0,0-1,.49A8.14,8.14,0,0,1,96.83,59v4.82h-1.5V59.08a3.79,3.79,0,0,0-.11-1,0.91,0.91,0,0,0-.42-0.56,1.8,1.8,0,0,0-.89-0.18,2.59,2.59,0,0,0-.94.21,3.56,3.56,0,0,0-1,.58v5.75h-1.5V56h1.34V57a6.5,6.5,0,0,1,1.25-.63A3.92,3.92,0,0,1,94.51,56a3.09,3.09,0,0,1,1.25.22,1.5,1.5,0,0,1,.73.72,5.15,5.15,0,0,1,1.32-.66A4.61,4.61,0,0,1,99.36,56,2.52,2.52,0,0,1,100.65,56.33Z" transform="translate(-0.39)"/><path class="cls-3" d="M108.12,56.24a1.71,1.71,0,0,1,.94.73,2.78,2.78,0,0,1,.33,1.49v5.39h-0.62a2,2,0,0,1-.46,0,0.4,0.4,0,0,1-.25-0.19,1,1,0,0,1-.09-0.48V63.08a2.86,2.86,0,0,1-.94.54,3.5,3.5,0,0,1-1.25.23,2.76,2.76,0,0,1-1.23-.27,2,2,0,0,1-.85-0.76,2.18,2.18,0,0,1-.3-1.17,2.08,2.08,0,0,1,.4-1.28,2.55,2.55,0,0,1,1.12-.83,6.73,6.73,0,0,1,1.44-.38,9.86,9.86,0,0,1,1.53-.13V58.33a1.28,1.28,0,0,0-.17-0.74,0.87,0.87,0,0,0-.52-0.33,4.2,4.2,0,0,0-1-.09,4.13,4.13,0,0,0-.75.08,6.61,6.61,0,0,0-.8.2,2.56,2.56,0,0,0-.55.23l-0.37-.94a4,4,0,0,1,.65-0.28,8.37,8.37,0,0,1,1.07-.3,5.24,5.24,0,0,1,1.15-.13A4.82,4.82,0,0,1,108.12,56.24Zm-1.21,6.39a3.35,3.35,0,0,0,.63-0.23,1.18,1.18,0,0,0,.35-0.23V60a7.57,7.57,0,0,0-1.12.1,3.61,3.61,0,0,0-1,.28,1.88,1.88,0,0,0-.64.46,1,1,0,0,0-.23.69,1.13,1.13,0,0,0,1.35,1.2A2.62,2.62,0,0,0,106.91,62.63Z" transform="translate(-0.39)"/><path class="cls-3" d="M118.61,57.29h-1.43a2.41,2.41,0,0,1,.35,1.3,2.33,2.33,0,0,1-.41,1.38,2.54,2.54,0,0,1-1.12.88,4.13,4.13,0,0,1-1.61.3,3.73,3.73,0,0,1-.85-0.09,1.05,1.05,0,0,0-.31.36,0.93,0.93,0,0,0-.12.46,0.78,0.78,0,0,0,.2.62,1.08,1.08,0,0,0,.69.17h1.42a3.25,3.25,0,0,1,2.25.6,2,2,0,0,1,.63,1.55,1.92,1.92,0,0,1-.51,1.32,3.26,3.26,0,0,1-1.36.88,5.56,5.56,0,0,1-1.9.31,4.37,4.37,0,0,1-2.4-.56,1.89,1.89,0,0,1-.87-1.69,1.45,1.45,0,0,1,.32-0.93,2.5,2.5,0,0,1,.77-0.64,1.24,1.24,0,0,1-.6-1.16,1.63,1.63,0,0,1,.26-0.84,2.37,2.37,0,0,1,.7-0.74,2.54,2.54,0,0,1-1-.87,2.19,2.19,0,0,1-.36-1.23,2.45,2.45,0,0,1,.41-1.45,2.43,2.43,0,0,1,1.13-.87A4.38,4.38,0,0,1,114.5,56a3.55,3.55,0,0,1,1.89.47,2.24,2.24,0,0,1,.66-0.34,2.45,2.45,0,0,1,.8-0.14h0.76v1.25Zm-5.4,6.5a1.58,1.58,0,0,0-.37.45,1.33,1.33,0,0,0-.13.63,1.27,1.27,0,0,0,.43,1.06,2.27,2.27,0,0,0,1.41.35,4.64,4.64,0,0,0,1.15-.13,2.13,2.13,0,0,0,.84-0.39,0.78,0.78,0,0,0,.31-0.62,1.4,1.4,0,0,0-.16-0.71A1,1,0,0,0,116.1,64a3.76,3.76,0,0,0-1.19-.15h-0.7A8.55,8.55,0,0,1,113.2,63.79Zm2.42-4a1.48,1.48,0,0,0,.41-1.18,1.6,1.6,0,0,0-.38-1.16,1.54,1.54,0,0,0-1.16-.4,2,2,0,0,0-1.2.33,1.39,1.39,0,0,0-.45,1.19,1.62,1.62,0,0,0,.39,1.12,1.51,1.51,0,0,0,1.19.44A1.82,1.82,0,0,0,115.62,59.8Z" transform="translate(-0.39)"/><path class="cls-3" d="M124.17,56.24a1.71,1.71,0,0,1,.94.73,2.78,2.78,0,0,1,.33,1.49v5.39h-0.62a2,2,0,0,1-.46,0,0.4,0.4,0,0,1-.25-0.19,1,1,0,0,1-.09-0.48V63.08a2.86,2.86,0,0,1-.94.54,3.5,3.5,0,0,1-1.25.23,2.76,2.76,0,0,1-1.23-.27,2,2,0,0,1-.85-0.76,2.18,2.18,0,0,1-.3-1.17,2.08,2.08,0,0,1,.4-1.28,2.55,2.55,0,0,1,1.12-.83,6.73,6.73,0,0,1,1.44-.38,9.86,9.86,0,0,1,1.53-.13V58.33a1.28,1.28,0,0,0-.17-0.74,0.87,0.87,0,0,0-.52-0.33,4.2,4.2,0,0,0-1-.09,4.13,4.13,0,0,0-.75.08,6.61,6.61,0,0,0-.8.2,2.56,2.56,0,0,0-.55.23l-0.37-.94a4,4,0,0,1,.65-0.28,8.37,8.37,0,0,1,1.07-.3,5.24,5.24,0,0,1,1.15-.13A4.82,4.82,0,0,1,124.17,56.24ZM123,62.63a3.35,3.35,0,0,0,.63-0.23,1.18,1.18,0,0,0,.35-0.23V60a7.57,7.57,0,0,0-1.12.1,3.61,3.61,0,0,0-1,.28,1.88,1.88,0,0,0-.64.46,1,1,0,0,0-.23.69,1.13,1.13,0,0,0,1.35,1.2A2.62,2.62,0,0,0,123,62.63Z" transform="translate(-0.39)"/><path class="cls-3" d="M131.27,57.2h-3.76V56h5.55l0.24,0.65-3.76,5.48-0.4.57h4v1.09h-5.78l-0.29-.56Z" transform="translate(-0.39)"/><path class="cls-3" d="M135,53.18a1.17,1.17,0,0,1,.42-0.39,1.08,1.08,0,0,1,.53-0.14,0.94,0.94,0,0,1,.71.26,0.92,0.92,0,0,1,.25.66,1,1,0,0,1-.16.55,1.09,1.09,0,0,1-.41.38,1.12,1.12,0,0,1-.54.14,1,1,0,0,1-.48-0.11A0.89,0.89,0,0,1,135,54.2a0.88,0.88,0,0,1-.13-0.49A1,1,0,0,1,135,53.18ZM136.62,56v7.79h-1.5V56h1.5Z" transform="translate(-0.39)"/><path class="cls-3" d="M140.48,56V57a6.24,6.24,0,0,1,1.32-.64,4.42,4.42,0,0,1,1.51-.29,2.42,2.42,0,0,1,1.29.3,1.69,1.69,0,0,1,.7,1,5.76,5.76,0,0,1,.22,1.77v4.79H144V59.07a4.07,4.07,0,0,0-.1-1,1,1,0,0,0-.38-0.57,1.4,1.4,0,0,0-.79-0.19h-0.18a2.51,2.51,0,0,0-.94.22,3.87,3.87,0,0,0-1,.58v5.75h-1.5V56h1.34Z" transform="translate(-0.39)"/><path class="cls-3" d="M153.68,59.66a3.06,3.06,0,0,1-.06.51h-4.81a1,1,0,0,1,0,.14,2.18,2.18,0,0,0,2.38,2.41,5.31,5.31,0,0,0,1-.13,3.1,3.1,0,0,0,.9-0.29l0.29,0.86a3,3,0,0,1-1.14.5,6,6,0,0,1-1.49.19,3.57,3.57,0,0,1-1.87-.46A3,3,0,0,1,147.75,62a5.06,5.06,0,0,1-.4-2.12,4.76,4.76,0,0,1,.4-2,3.18,3.18,0,0,1,1.18-1.38,3.43,3.43,0,0,1,1.9-.5,3.18,3.18,0,0,1,1.43.32,2.46,2.46,0,0,1,1,1,3.08,3.08,0,0,1,.41,1.53Q153.69,59.37,153.68,59.66Zm-1.38-.78a2.15,2.15,0,0,0-.35-1.28,1.39,1.39,0,0,0-1.21-.49,1.74,1.74,0,0,0-1.26.49,2.55,2.55,0,0,0-.62,1.58h3.43C152.29,59,152.3,58.94,152.3,58.88Z" transform="translate(-0.39)"/></svg>